<svg xmlns="http://www.w3.org/2000/svg" viewBox="0 0 800 800" role="img" aria-labelledby="title desc">
  <title id="title">PulsePlan coach avatar</title>
  <desc id="desc">Abstract futuristic fitness coach silhouette with glowing rings and heartbeat line.</desc>
  <defs>
    <linearGradient id="g1" x1="0" y1="0" x2="1" y2="1">
      <stop offset="0%" stop-color="#6ef3d6"/>
      <stop offset="50%" stop-color="#3f79ff"/>
      <stop offset="100%" stop-color="#ffffff"/>
    </linearGradient>
    <radialGradient id="g2" cx="50%" cy="45%" r="55%">
      <stop offset="0%" stop-color="#173240" stop-opacity="0.95"/>
      <stop offset="100%" stop-color="#071014" stop-opacity="1"/>
    </radialGradient>
  </defs>
  <rect width="800" height="800" rx="48" fill="url(#g2)"/>
  <circle cx="400" cy="392" r="254" fill="none" stroke="#2a4f63" stroke-width="16" stroke-dasharray="18 24" opacity="0.72"/>
  <circle cx="400" cy="392" r="214" fill="none" stroke="url(#g1)" stroke-width="10" opacity="0.82"/>
  <path d="M156 360c50-110 130-178 244-178s194 56 244 178" fill="none" stroke="#2a516a" stroke-width="12" stroke-linecap="round" opacity="0.78"/>
  <path d="M214 390h58l30-58 34 112 42-84 28 30h39l23-32 28 58h92" fill="none" stroke="#6ef3d6" stroke-width="12" stroke-linecap="round" stroke-linejoin="round"/>
  <path d="M312 318c0-54 37-92 88-92s88 38 88 92-36 95-88 95-88-41-88-95z" fill="#dff7ff" opacity="0.96"/>
  <path d="M338 474c0-40 26-70 62-70s62 30 62 70v84c0 34-25 60-62 60s-62-26-62-60z" fill="#dff7ff" opacity="0.96"/>
  <path d="M310 506h180l42 62v42H268v-42z" fill="#7de9d4" opacity="0.88"/>
  <path d="M258 603c52 34 114 52 142 52s90-18 142-52" fill="none" stroke="#ffffff" stroke-width="10" stroke-linecap="round" opacity="0.7"/>
  <path d="M206 240c36-30 82-58 128-72" fill="none" stroke="#3f79ff" stroke-width="10" stroke-linecap="round" opacity="0.78"/>
  <path d="M594 240c-36-30-82-58-128-72" fill="none" stroke="#3f79ff" stroke-width="10" stroke-linecap="round" opacity="0.78"/>
</svg>